FILE "myimage.bin" BINARY
  TRACK 01 MODE2/2352
    INDEX 01 00:00:00
  TRACK 02 AUDIO
    PREGAP 00:02:00
    INDEX 01 00:14:69
  TRACK 03 AUDIO
    INDEX 01 00:24:69
  TRACK 04 AUDIO
    INDEX 01 02:07:47
